<svg width="33" height="32" viewBox="0 0 33 32" fill="none" xmlns="http://www.w3.org/2000/svg">
<g clip-path="url(#clip0_1_2)">
<path fill-rule="evenodd" clip-rule="evenodd" d="M16.29 -6.83696e-06C12.4189 -0.00394133 8.6729 1.37083 5.72333 3.87793C2.77377 6.38503 0.813422 9.86059 0.19361 13.6818C-0.426202 17.5029 0.335032 21.4199 2.34089 24.7308C4.34676 28.0417 7.46613 30.5301 11.14 31.75C11.96 31.9 12.25 31.39 12.25 30.96C12.25 30.53 12.25 29.55 12.25 28.19C7.70001 29.18 6.74001 26 6.74001 26C6.43816 25.0144 5.79689 24.1677 4.93001 23.61C3.46001 22.61 5.05001 22.61 5.05001 22.61C5.5653 22.6828 6.05728 22.8719 6.48869 23.1629C6.92009 23.454 7.27961 23.8394 7.54001 24.29C7.76127 24.6912 8.05957 25.0447 8.41781 25.3304C8.77604 25.616 9.18715 25.8281 9.62755 25.9544C10.0679 26.0808 10.529 26.119 10.9841 26.0667C11.4393 26.0145 11.8797 25.8728 12.28 25.65C12.3428 24.8273 12.6974 24.0542 13.28 23.47C9.66001 23.06 5.86001 21.66 5.86001 15.47C5.83515 13.853 6.43308 12.2883 7.53001 11.1C7.04146 9.69402 7.09856 8.15587 7.69001 6.78999C7.69001 6.78999 9.06001 6.34999 12.17 8.45999C14.8406 7.72675 17.6594 7.72675 20.33 8.45999C23.44 6.34999 24.8 6.78999 24.8 6.78999C25.3997 8.14142 25.471 9.66853 25 11.07C26.0969 12.2583 26.6949 13.823 26.67 15.44C26.67 21.7 22.86 23.07 19.23 23.44C19.6192 23.8313 19.9198 24.3016 20.1113 24.8193C20.3028 25.3369 20.3808 25.8896 20.34 26.44C20.34 28.62 20.34 30.38 20.34 30.91C20.34 31.44 20.63 31.85 21.46 31.69C25.0921 30.4379 28.1647 27.9425 30.1351 24.6445C32.1056 21.3465 32.847 17.4582 32.2284 13.6665C31.6098 9.8748 29.6711 6.42376 26.7546 3.92302C23.8381 1.42228 20.1317 0.0327823 16.29 -6.83696e-06V-6.83696e-06Z" fill="white"/>
</g>
<defs>
<clipPath id="clip0_1_2">
<rect width="32.58" height="31.77" fill="white"/>
</clipPath>
</defs>
</svg>
